<?xml version="1.0" encoding="UTF-8" standalone="no"?>
<!-- Created with Inkscape (http://www.inkscape.org/) -->

<svg
   xmlns:dc="http://purl.org/dc/elements/1.1/"
   xmlns:cc="http://creativecommons.org/ns#"
   xmlns:rdf="http://www.w3.org/1999/02/22-rdf-syntax-ns#"
   xmlns:svg="http://www.w3.org/2000/svg"
   xmlns="http://www.w3.org/2000/svg"
   xmlns:sodipodi="http://sodipodi.sourceforge.net/DTD/sodipodi-0.dtd"
   xmlns:inkscape="http://www.inkscape.org/namespaces/inkscape"
   width="128"
   height="128"
   viewBox="0 0 33.866666 33.866668"
   version="1.1"
   id="svg8"
   inkscape:version="0.92.3 (unknown)"
   sodipodi:docname="spritesheet1.svg">
  <defs
     id="defs2" />
  <sodipodi:namedview
     id="base"
     pagecolor="#ffffff"
     bordercolor="#666666"
     borderopacity="1.0"
     inkscape:pageopacity="0.0"
     inkscape:pageshadow="2"
     inkscape:zoom="6.8671875"
     inkscape:cx="46.671217"
     inkscape:cy="64"
     inkscape:document-units="px"
     inkscape:current-layer="layer1"
     showgrid="true"
     inkscape:window-width="1918"
     inkscape:window-height="1057"
     inkscape:window-x="0"
     inkscape:window-y="1024"
     inkscape:window-maximized="0"
     inkscape:pagecheckerboard="true"
     units="px"
     showguides="true"
     inkscape:guide-bbox="true"
     inkscape:snap-grids="false"
     inkscape:snap-center="true">
    <inkscape:grid
       type="xygrid"
       id="grid815"
       units="px"
       spacingx="2.1166667"
       spacingy="2.1166667"
       empspacing="4"
       dotted="false"
       color="#fb503f"
       opacity="0.52941176"
       empcolor="#3f3fff"
       empopacity="0.90980392" />
  </sodipodi:namedview>
  <metadata
     id="metadata5">
    <rdf:RDF>
      <cc:Work
         rdf:about="">
        <dc:format>image/svg+xml</dc:format>
        <dc:type
           rdf:resource="http://purl.org/dc/dcmitype/StillImage" />
        <dc:title></dc:title>
      </cc:Work>
    </rdf:RDF>
  </metadata>
  <g
     inkscape:label="Layer 1"
     inkscape:groupmode="layer"
     id="layer1"
     transform="translate(0,-263.13332)">
    <text
       xml:space="preserve"
       style="font-style:normal;font-variant:normal;font-weight:normal;font-stretch:normal;font-size:3.17499995px;line-height:125%;font-family:Arial;-inkscape-font-specification:'Arial, Normal';font-variant-ligatures:normal;font-variant-caps:normal;font-variant-numeric:normal;font-feature-settings:normal;text-align:center;letter-spacing:0px;word-spacing:0px;writing-mode:lr-tb;text-anchor:middle;fill:#000000;fill-opacity:1;stroke:none;stroke-width:0.26458332px;stroke-linecap:butt;stroke-linejoin:miter;stroke-opacity:1"
       x="-100"
       y="97"
       id="text871"><tspan
         sodipodi:role="line"
         id="tspan869"
         x="-100"
         y="97"
         style="stroke-width:0.26458332px">Definition</tspan></text>
    <path
       style="opacity:1;fill:#d40000;fill-opacity:0.97826089;stroke:#000000;stroke-width:0.50204879;stroke-miterlimit:4;stroke-dasharray:3.01229263, 0.50204877;stroke-dashoffset:0;stroke-opacity:0.45108696"
       id="path826"
       sodipodi:type="arc"
       sodipodi:cx="25.381474"
       sodipodi:cy="271.65558"
       sodipodi:rx="8.2999268"
       sodipodi:ry="8.4110861"
       sodipodi:start="0.94818677"
       sodipodi:end="0.0060878268"
       d="m 30.221634,278.4884 a 8.2999268,8.4110861 0 0 1 -10.26707,-0.46879 8.2999268,8.4110861 0 0 1 -1.946025,-10.22672 8.2999268,8.4110861 0 0 1 9.358847,-4.30408 8.2999268,8.4110861 0 0 1 6.31386,8.21797 l -8.299772,-0.0512 z" />
    <path
       style="opacity:1;fill:#ffff00;fill-opacity:0.97826089;stroke:#000000;stroke-width:0.21706253;stroke-miterlimit:4;stroke-dasharray:1.30237524, 0.21706254;stroke-dashoffset:0;stroke-opacity:0.45108696"
       id="path826-2"
       sodipodi:type="arc"
       sodipodi:cx="-192.82452"
       sodipodi:cy="185.26077"
       sodipodi:rx="3.5885022"
       sodipodi:ry="3.6365626"
       sodipodi:start="0.94818677"
       sodipodi:end="0.0060878268"
       d="m -190.73186,188.21497 a 3.5885022,3.6365626 0 0 1 -4.43901,-0.20269 3.5885022,3.6365626 0 0 1 -0.84137,-4.42156 3.5885022,3.6365626 0 0 1 4.04633,-1.86088 3.5885022,3.6365626 0 0 1 2.72982,3.55307 l -3.58843,-0.0221 z"
       transform="rotate(-47.053187)" />
    <path
       style="opacity:1;fill:#000080;fill-opacity:0.97826089;stroke:#000000;stroke-width:0.48631546;stroke-miterlimit:4;stroke-dasharray:2.91789261, 0.48631542;stroke-dashoffset:0;stroke-opacity:0.45108696"
       id="path826-2-2"
       sodipodi:type="arc"
       sodipodi:cx="8.4067535"
       sodipodi:cy="288.59558"
       sodipodi:rx="8.0380964"
       sodipodi:ry="8.1492462"
       sodipodi:start="0.94818677"
       sodipodi:end="0.0060878268"
       d="m 13.094226,295.2157 a 8.0380964,8.1492462 0 0 1 -9.9431838,-0.4542 8.0380964,8.1492462 0 0 1 -1.884636,-9.90836 8.0380964,8.1492462 0 0 1 9.0636118,-4.1701 8.0380964,8.1492462 0 0 1 6.114683,7.96215 l -8.0379475,-0.0496 z" />
    <path
       style="opacity:1;fill:#800080;fill-opacity:0.97826089;stroke:#000000;stroke-width:0.50204879;stroke-miterlimit:4;stroke-dasharray:3.01229269, 0.50204877000000003;stroke-dashoffset:0;stroke-opacity:0.45108696"
       id="path826-2-4"
       sodipodi:type="arc"
       sodipodi:cx="25.455677"
       sodipodi:cy="288.51556"
       sodipodi:rx="8.2999268"
       sodipodi:ry="8.4110861"
       sodipodi:start="0.94818677"
       sodipodi:end="0.0060878268"
       d="m 30.295838,295.34839 a 8.2999268,8.4110861 0 0 1 -10.26707,-0.4688 8.2999268,8.4110861 0 0 1 -1.946026,-10.22672 8.2999268,8.4110861 0 0 1 9.358847,-4.30408 8.2999268,8.4110861 0 0 1 6.313861,8.21798 l -8.299773,-0.0512 z" />
    <path
       style="opacity:1;fill:#ffffff;fill-opacity:0.97826089;stroke:#000000;stroke-width:0.50204879;stroke-miterlimit:4;stroke-dasharray:3.01229263, 0.50204877000000003;stroke-dashoffset:0;stroke-opacity:0.45108696"
       id="path866"
       sodipodi:type="arc"
       sodipodi:cx="11.19008"
       sodipodi:cy="283.17914"
       sodipodi:rx="1.5562363"
       sodipodi:ry="1.1857039"
       sodipodi:start="0.14732832"
       sodipodi:end="0.0060878306"
       d="m 12.729457,283.35319 a 1.5562363,1.1857039 0 0 1 -1.71334,1.00422 1.5562363,1.1857039 0 0 1 -1.3776973,-1.26914 1.5562363,1.1857039 0 0 1 1.6160663,-1.09382 1.5562363,1.1857039 0 0 1 1.491801,1.19191"
       sodipodi:open="true" />
    <path
       style="opacity:1;fill:#916f6f;fill-opacity:0.97826089;stroke:#000000;stroke-width:0.23726483;stroke-miterlimit:4;stroke-dasharray:1.42358897, 0.23726483;stroke-dashoffset:0;stroke-opacity:0.45108696"
       id="path826-2-6"
       sodipodi:type="arc"
       sodipodi:cx="-243.9433"
       sodipodi:cy="-109.65517"
       sodipodi:rx="3.9224889"
       sodipodi:ry="3.9750221"
       sodipodi:start="0.94818677"
       sodipodi:end="0.0060878268"
       d="m -241.65587,-106.42602 a 3.9224889,3.9750221 0 0 1 -4.85215,-0.22155 3.9224889,3.9750221 0 0 1 -0.91968,-4.83308 3.9224889,3.9750221 0 0 1 4.42293,-2.03408 3.9224889,3.9750221 0 0 1 2.98389,3.88376 l -3.92242,-0.0242 z"
       transform="rotate(-116.92612)" />
    <path
       style="opacity:1;fill:#008080;fill-opacity:0.97826089;stroke:#000000;stroke-width:0.2045671;stroke-miterlimit:4;stroke-dasharray:1.2274026, 0.2045671;stroke-dashoffset:0;stroke-opacity:0.45108696"
       id="path826-2-6-8"
       sodipodi:type="arc"
       sodipodi:cx="-93.732536"
       sodipodi:cy="-258.0939"
       sodipodi:rx="3.3417156"
       sodipodi:ry="3.4684541"
       sodipodi:start="0.94818677"
       sodipodi:end="0.0060878268"
       d="m -91.783791,-255.27627 a 3.3417156,3.4684541 0 0 1 -4.133727,-0.19332 3.3417156,3.4684541 0 0 1 -0.783508,-4.21716 3.3417156,3.4684541 0 0 1 3.768057,-1.77486 3.3417156,3.4684541 0 0 1 2.542086,3.38882 l -3.341653,-0.0211 z"
       transform="matrix(-0.9500064,-0.31223043,0.29603304,-0.9551777,0,0)" />
    <path
       style="opacity:1;fill:#ffd42a;fill-opacity:0.97826089;stroke:#000000;stroke-width:0.14912309;stroke-miterlimit:4;stroke-dasharray:0.89473849, 0.14912309;stroke-dashoffset:0;stroke-opacity:0.45108696"
       id="path826-2-6-8-8"
       sodipodi:type="arc"
       sodipodi:cx="154.69769"
       sodipodi:cy="-218.91197"
       sodipodi:rx="2.4423265"
       sodipodi:ry="2.5218577"
       sodipodi:start="0.94818677"
       sodipodi:end="0.0060878268"
       d="m 156.12195,-216.86332 a 2.4423265,2.5218577 0 0 1 -3.02117,-0.14055 2.4423265,2.5218577 0 0 1 -0.57264,-3.06624 2.4423265,2.5218577 0 0 1 2.75393,-1.29047 2.4423265,2.5218577 0 0 1 1.8579,2.46396 l -2.44228,-0.0153 z"
       transform="matrix(-0.78265988,0.62244961,-0.57214105,-0.82015524,0,0)" />
  </g>
</svg>
