<?xml version="1.0" encoding="UTF-8" standalone="no"?>
<!-- Created with Inkscape (http://www.inkscape.org/) -->

<svg
   xmlns:dc="http://purl.org/dc/elements/1.1/"
   xmlns:cc="http://creativecommons.org/ns#"
   xmlns:rdf="http://www.w3.org/1999/02/22-rdf-syntax-ns#"
   xmlns:svg="http://www.w3.org/2000/svg"
   xmlns="http://www.w3.org/2000/svg"
   xmlns:sodipodi="http://sodipodi.sourceforge.net/DTD/sodipodi-0.dtd"
   xmlns:inkscape="http://www.inkscape.org/namespaces/inkscape"
   width="128"
   height="128"
   viewBox="0 0 33.866666 33.866668"
   version="1.1"
   id="svg8"
   inkscape:version="0.92.3 (2405546, 2018-03-11)"
   sodipodi:docname="spritesheet1.svg">
  <defs
     id="defs2" />
  <sodipodi:namedview
     id="base"
     pagecolor="#ffffff"
     bordercolor="#666666"
     borderopacity="1.0"
     inkscape:pageopacity="0.0"
     inkscape:pageshadow="2"
     inkscape:zoom="6.1875"
     inkscape:cx="86.464646"
     inkscape:cy="64"
     inkscape:document-units="px"
     inkscape:current-layer="layer1"
     showgrid="true"
     inkscape:window-width="1258"
     inkscape:window-height="958"
     inkscape:window-x="1930"
     inkscape:window-y="32"
     inkscape:window-maximized="0"
     inkscape:pagecheckerboard="true"
     units="px"
     showguides="true"
     inkscape:guide-bbox="true"
     inkscape:snap-grids="false"
     inkscape:snap-center="true">
    <inkscape:grid
       type="xygrid"
       id="grid815"
       units="px"
       spacingx="2.1166667"
       spacingy="2.1166667"
       empspacing="4"
       dotted="false"
       color="#fb503f"
       opacity="0.52941176"
       empcolor="#3f3fff"
       empopacity="0.90980392" />
  </sodipodi:namedview>
  <metadata
     id="metadata5">
    <rdf:RDF>
      <cc:Work
         rdf:about="">
        <dc:format>image/svg+xml</dc:format>
        <dc:type
           rdf:resource="http://purl.org/dc/dcmitype/StillImage" />
        <dc:title />
      </cc:Work>
    </rdf:RDF>
  </metadata>
  <g
     inkscape:label="Layer 1"
     inkscape:groupmode="layer"
     id="layer1"
     transform="translate(0,-263.13332)">
    <text
       xml:space="preserve"
       style="font-style:normal;font-variant:normal;font-weight:normal;font-stretch:normal;font-size:3.17499995px;line-height:125%;font-family:Arial;-inkscape-font-specification:'Arial, Normal';font-variant-ligatures:normal;font-variant-caps:normal;font-variant-numeric:normal;font-feature-settings:normal;text-align:center;letter-spacing:0px;word-spacing:0px;writing-mode:lr-tb;text-anchor:middle;fill:#000000;fill-opacity:1;stroke:none;stroke-width:0.26458332px;stroke-linecap:butt;stroke-linejoin:miter;stroke-opacity:1"
       x="-100"
       y="97"
       id="text871"><tspan
         sodipodi:role="line"
         id="tspan869"
         x="-100"
         y="97"
         style="stroke-width:0.26458332px">Definition</tspan></text>
    <path
       style="opacity:1;fill:#d40000;fill-opacity:0.97826089;stroke:#000000;stroke-width:0.39919314;stroke-miterlimit:4;stroke-dasharray:2.39515882, 0.39919314;stroke-dashoffset:0;stroke-opacity:0.45108696"
       id="path826"
       sodipodi:type="arc"
       sodipodi:cx="25.340023"
       sodipodi:cy="271.63403"
       sodipodi:rx="6.5995059"
       sodipodi:ry="6.687892"
       sodipodi:start="0.94818677"
       sodipodi:end="0.0060878268"
       d="m 29.188571,277.06701 a 6.5995059,6.687892 0 0 1 -8.163637,-0.37276 6.5995059,6.687892 0 0 1 -1.547339,-8.13155 6.5995059,6.687892 0 0 1 7.441483,-3.4223 6.5995059,6.687892 0 0 1 5.020329,6.53435 l -6.599384,-0.0407 z" />
    <path
       style="opacity:1;fill:#ffff00;fill-opacity:0.97826089;stroke:#000000;stroke-width:0.21706253;stroke-miterlimit:4;stroke-dasharray:1.30237524, 0.21706254;stroke-dashoffset:0;stroke-opacity:0.45108696"
       id="path826-2"
       sodipodi:type="arc"
       sodipodi:cx="2.3898096"
       sodipodi:cy="267.39465"
       sodipodi:rx="3.5885022"
       sodipodi:ry="3.6365626"
       sodipodi:start="0.94818677"
       sodipodi:end="0.0060878268"
       d="m 4.4824699,270.34885 a 3.5885022,3.6365626 0 0 1 -4.43900331,-0.20269 3.5885022,3.6365626 0 0 1 -0.84137091,-4.42155 3.5885022,3.6365626 0 0 1 4.04633002,-1.86089 3.5885022,3.6365626 0 0 1 2.7298196,3.55307 l -3.5884357,-0.0221 z"
       transform="rotate(-0.39458335)" />
    <path
       style="opacity:1;fill:#000080;fill-opacity:0.97826089;stroke:#000000;stroke-width:0.2298492;stroke-miterlimit:4;stroke-dasharray:1.37909515, 0.22984918;stroke-dashoffset:0;stroke-opacity:0.45108696"
       id="path826-2-2"
       sodipodi:type="arc"
       sodipodi:cx="4.0393972"
       sodipodi:cy="284.16943"
       sodipodi:rx="3.7990773"
       sodipodi:ry="3.8516107"
       sodipodi:start="0.94818677"
       sodipodi:end="0.0060878268"
       d="m 6.2548559,287.29833 a 3.7990773,3.8516107 0 0 1 -4.6994863,-0.21468 3.7990773,3.8516107 0 0 1 -0.89074293,-4.68302 3.7990773,3.8516107 0 0 1 4.28377073,-1.97093 3.7990773,3.8516107 0 0 1 2.8900067,3.76318 l -3.7990069,-0.0235 z" />
    <path
       style="opacity:1;fill:#800080;fill-opacity:0.97826089;stroke:#000000;stroke-width:0.37201601;stroke-miterlimit:4;stroke-dasharray:2.23209607, 0.372016;stroke-dashoffset:0;stroke-opacity:0.45108696"
       id="path826-2-4"
       sodipodi:type="arc"
       sodipodi:cx="25.477036"
       sodipodi:cy="288.70776"
       sodipodi:rx="6.4621005"
       sodipodi:ry="5.9317665"
       sodipodi:start="0.94818677"
       sodipodi:end="0.0060878268"
       d="m 29.245455,293.52649 a 6.4621005,5.9317665 0 0 1 -7.993665,-0.33061 6.4621005,5.9317665 0 0 1 -1.515124,-7.21221 6.4621005,5.9317665 0 0 1 7.286548,-3.03538 6.4621005,5.9317665 0 0 1 4.915802,5.79559 l -6.46198,-0.0361 z" />
    <path
       style="opacity:1;fill:#ffffff;fill-opacity:0.97826089;stroke:#000000;stroke-width:0.21695378;stroke-miterlimit:4;stroke-dasharray:1.30172267, 0.21695378;stroke-dashoffset:0;stroke-opacity:0.45108696"
       id="path866"
       sodipodi:type="arc"
       sodipodi:cx="5.3318443"
       sodipodi:cy="282.23495"
       sodipodi:rx="0.67250705"
       sodipodi:ry="0.51238632"
       sodipodi:start="0.14732832"
       sodipodi:end="0.0060878306"
       d="m 5.997066,282.31017 a 0.67250705,0.51238632 0 0 1 -0.7403972,0.43396 0.67250705,0.51238632 0 0 1 -0.5953539,-0.54844 0.67250705,0.51238632 0 0 1 0.6983619,-0.47268 0.67250705,0.51238632 0 0 1 0.6446621,0.51506"
       sodipodi:open="true" />
    <path
       style="opacity:1;fill:#916f6f;fill-opacity:0.97826089;stroke:#000000;stroke-width:0.23726483;stroke-miterlimit:4;stroke-dasharray:1.42358897, 0.23726483;stroke-dashoffset:0;stroke-opacity:0.45108696"
       id="path826-2-6"
       sodipodi:type="arc"
       sodipodi:cx="15.100538"
       sodipodi:cy="267.3183"
       sodipodi:rx="3.9224889"
       sodipodi:ry="3.9750221"
       sodipodi:start="0.94818677"
       sodipodi:end="0.0060878268"
       d="m 17.387965,270.54745 a 3.9224889,3.9750221 0 0 1 -4.852147,-0.22155 3.9224889,3.9750221 0 0 1 -0.919679,-4.83308 3.9224889,3.9750221 0 0 1 4.422928,-2.03408 3.9224889,3.9750221 0 0 1 2.983887,3.88376 l -3.922416,-0.0242 z"
       transform="rotate(0.47783397)" />
    <path
       style="opacity:1;fill:#008080;fill-opacity:0.97826089;stroke:#000000;stroke-width:0.2045671;stroke-miterlimit:4;stroke-dasharray:1.2274026, 0.2045671;stroke-dashoffset:0;stroke-opacity:0.45108696"
       id="path826-2-6-8"
       sodipodi:type="arc"
       sodipodi:cx="11.155692"
       sodipodi:cy="275.6658"
       sodipodi:rx="3.3417156"
       sodipodi:ry="3.4684541"
       sodipodi:start="0.94818677"
       sodipodi:end="0.0060878268"
       d="m 13.104437,278.48343 a 3.3417156,3.4684541 0 0 1 -4.1337264,-0.19331 3.3417156,3.4684541 0 0 1 -0.7835086,-4.21716 3.3417156,3.4684541 0 0 1 3.768058,-1.77487 3.3417156,3.4684541 0 0 1 2.542086,3.38883 l -3.341654,-0.0211 z"
       transform="matrix(0.99993262,0.011608,0.00539479,0.99998545,0,0)" />
    <path
       style="opacity:1;fill:#ffd42a;fill-opacity:0.97826089;stroke:#000000;stroke-width:0.14912309;stroke-miterlimit:4;stroke-dasharray:0.89473849, 0.14912309;stroke-dashoffset:0;stroke-opacity:0.45108696"
       id="path826-2-6-8-8"
       sodipodi:type="arc"
       sodipodi:cx="23.483479"
       sodipodi:cy="276.37009"
       sodipodi:rx="2.4423265"
       sodipodi:ry="2.5218577"
       sodipodi:start="0.94818677"
       sodipodi:end="0.0060878268"
       d="m 24.907738,278.41874 a 2.4423265,2.5218577 0 0 1 -3.021175,-0.14056 2.4423265,2.5218577 0 0 1 -0.572635,-3.06623 2.4423265,2.5218577 0 0 1 2.753923,-1.29047 2.4423265,2.5218577 0 0 1 1.857909,2.46396 l -2.442281,-0.0154 z"
       transform="matrix(0.99997633,0.00688043,-0.06957886,0.99757645,0,0)" />
  </g>
</svg>
